HIERARCHY
ROOT SimulationBone
{
	OFFSET 0.000000 0.000000 0.000000
	CHANNELS 6 Xposition Yposition Zposition Zrotation Yrotation Xrotation 
	JOINT Hips
	{
		OFFSET 0.000000 0.000000 0.000000
		CHANNELS 6 Xposition Yposition Zposition Zrotation Yrotation Xrotation 
		JOINT LeftUpLeg
		{
			OFFSET 0.103462 1.857831 10.548496
			CHANNELS 3 Zrotation Yrotation Xrotation
			JOINT LeftLeg
			{
				OFFSET 43.500000 -0.000038 -0.000010
				CHANNELS 3 Zrotation Yrotation Xrotation
				JOINT LeftFoot
				{
					OFFSET 42.372192 0.000011 0.000010
					CHANNELS 3 Zrotation Yrotation Xrotation
					JOINT LeftToe
					{
						OFFSET 17.299999 0.000001 -0.000001
						CHANNELS 3 Zrotation Yrotation Xrotation
						End Site
						{
							OFFSET 0.000000 0.000000 0.000000
						}
					}
				}
			}
		}
		JOINT RightUpLeg
		{
			OFFSET 0.103456 1.857825 -10.548502
			CHANNELS 3 Zrotation Yrotation Xrotation
			JOINT RightLeg
			{
				OFFSET 43.500038 -0.000023 0.000011
				CHANNELS 3 Zrotation Yrotation Xrotation
				JOINT RightFoot
				{
					OFFSET 42.372261 -0.000008 0.000011
					CHANNELS 3 Zrotation Yrotation Xrotation
					JOINT RightToe
					{
						OFFSET 17.299994 -0.000004 0.000002
						CHANNELS 3 Zrotation Yrotation Xrotation
						End Site
						{
							OFFSET 0.000000 0.000000 0.000000
						}
					}
				}
			}
		}
		JOINT Spine
		{
			OFFSET 6.901965 -2.603729 -0.000002
			CHANNELS 3 Zrotation Yrotation Xrotation
			JOINT Spine1
			{
				OFFSET 12.588101 -0.000004 0.000003
				CHANNELS 3 Zrotation Yrotation Xrotation
				JOINT Spine2
				{
					OFFSET 12.343205 0.000006 0.000001
					CHANNELS 3 Zrotation Yrotation Xrotation
					JOINT Neck
					{
						OFFSET 25.832897 -0.000008 -0.000001
						CHANNELS 3 Zrotation Yrotation Xrotation
						JOINT Head
						{
							OFFSET 11.766601 0.000009 -0.000008
							CHANNELS 3 Zrotation Yrotation Xrotation
							End Site
							{
								OFFSET 0.000000 0.000000 0.000000
							}
						}
					}
					JOINT LeftShoulder
					{
						OFFSET 19.745893 -1.480370 6.000097
						CHANNELS 3 Zrotation Yrotation Xrotation
						JOINT LeftArm
						{
							OFFSET 11.284136 -0.000006 -0.000021
							CHANNELS 3 Zrotation Yrotation Xrotation
							JOINT LeftForeArm
							{
								OFFSET 33.000042 0.000005 0.000030
								CHANNELS 3 Zrotation Yrotation Xrotation
								JOINT LeftHand
								{
									OFFSET 25.200008 0.000013 0.000010
									CHANNELS 3 Zrotation Yrotation Xrotation
									End Site
									{
										OFFSET 0.000000 0.000000 0.000000
									}
								}
							}
						}
					}
					JOINT RightShoulder
					{
						OFFSET 19.746088 -1.480379 -6.000076
						CHANNELS 3 Zrotation Yrotation Xrotation
						JOINT RightArm
						{
							OFFSET 11.284133 -0.000016 -0.000013
							CHANNELS 3 Zrotation Yrotation Xrotation
							JOINT RightForeArm
							{
								OFFSET 33.000095 0.000019 0.000001
								CHANNELS 3 Zrotation Yrotation Xrotation
								JOINT RightHand
								{
									OFFSET 25.199785 0.000138 0.000422
									CHANNELS 3 Zrotation Yrotation Xrotation
									End Site
									{
										OFFSET 0.000000 0.000000 0.000000
									}
								}
							}
						}
					}
				}
			}
		}
	}
}
MOTION
Frames: 13
Frame Time: 0.033333
-179.257557 0.000000 -139.908321 180.000000 -59.548389 180.000000 0.555760 84.304314 -0.209988 97.242389 0.042644 177.017293 155.444164 -15.289392 173.341336 -25.372710 -1.030738 -1.413112 64.821664 -0.658601 -4.537601 21.454553 0.003094 -0.000000 -162.413566 11.580902 169.123912 -22.523618 5.744268 -1.724718 94.652796 1.138094 1.078922 21.454555 -0.003119 -0.000019 9.803797 0.104257 0.391034 9.595361 0.175674 0.789359 9.277295 0.180573 0.788272 17.281108 -1.805887 2.018271 1.077652 -1.045505 2.257962 -166.223213 -73.251429 -15.585030 -5.479583 55.892978 10.896252 -53.421590 -19.485920 2.165732 -10.269537 -31.453059 26.029199 -164.578107 68.477100 17.268791 -18.457148 -52.355248 6.500839 -107.693806 -0.718969 -3.085949 -15.096019 10.270047 -38.214212 
-179.289386 0.000000 -135.845298 180.000000 -59.111972 180.000000 0.375177 84.015228 -0.264389 97.161743 -0.834523 177.509126 154.727117 -13.189298 169.438347 -30.281832 2.030184 -0.926626 64.603235 -1.177298 -4.745355 21.454551 0.003098 -0.000000 -162.329322 12.680602 172.056700 -26.537595 3.503436 -2.442948 91.604749 1.755628 1.402706 21.454557 -0.003115 -0.000014 9.898248 -0.146174 0.568307 9.782036 -0.339894 1.122222 9.463981 -0.332992 1.124251 17.243752 -1.971021 1.603320 1.409308 -0.574488 1.729183 -166.950505 -73.434021 -14.837838 -9.586252 55.261329 6.713641 -53.737934 -19.456801 2.174789 -9.931769 -32.629183 25.732451 -165.001798 68.612699 16.829697 -14.415959 -53.582817 3.388677 -103.166196 0.162302 -2.947224 -12.930330 8.473596 -40.399760 
-179.447369 0.000000 -131.820824 180.000000 -58.765479 180.000000 0.191908 83.832237 -0.464043 97.384536 -1.736144 176.770609 155.219478 -12.052798 172.909312 -34.654440 -0.569468 -3.010202 66.025779 -0.201668 -6.485843 21.454553 0.003095 -0.000002 -163.894692 13.853394 172.810001 -33.033704 1.469408 -2.275144 86.408450 1.620205 0.580572 21.454557 -0.003110 -0.000016 10.054705 -0.497933 0.887037 10.088946 -1.071336 1.727317 9.770924 -1.060759 1.733743 17.817378 -2.363368 1.249078 1.119734 -0.058439 1.268761 -166.733879 -73.477386 -15.059876 -13.182123 55.000013 3.214083 -55.290453 -19.479749 2.231272 -10.417837 -32.236843 26.011865 -165.193302 69.037107 16.628893 -11.088051 -54.892762 0.439024 -96.217606 1.758486 -2.748123 -9.898344 6.764576 -40.883702 
-179.725750 0.000000 -127.835359 180.000000 -58.505096 180.000000 -0.045219 83.636673 -0.837853 97.228353 -3.061057 175.843390 155.363581 -11.044204 173.679567 -39.412896 -3.407480 -3.932818 70.466925 0.862701 -6.204448 21.454555 0.003090 0.000001 -168.330231 15.249494 173.384352 -43.375933 -0.682674 -1.865306 79.289979 1.449726 0.495771 21.454558 -0.003107 -0.000017 10.069981 -0.957410 1.067471 10.110719 -2.004452 2.047446 9.792632 -1.991913 2.059520 18.753533 -3.221707 1.140119 0.364317 0.731168 1.013114 -166.435304 -73.229600 -15.367367 -15.398614 54.630254 1.192978 -57.773681 -19.274741 2.307601 -11.301461 -31.691562 27.295202 -166.260096 69.893333 15.522522 -9.341123 -56.332648 -4.708765 -86.445210 6.899392 -2.671065 -5.864004 5.406705 -40.667544 
-180.118772 0.000000 -123.889363 180.000000 -58.327095 180.000000 -0.280626 83.700920 -1.259635 96.811437 -4.491040 175.096487 156.212929 -9.023995 171.764327 -42.083722 -3.547694 -3.898900 74.200170 1.143183 -5.813589 21.454555 0.003092 -0.000000 -174.705830 16.366598 173.031341 -55.857314 -2.282755 0.041353 73.039468 0.746401 2.219743 21.454555 -0.003101 -0.000017 10.019813 -1.437730 1.132236 10.002389 -2.967930 2.136554 9.684074 -2.954842 2.154434 18.976659 -3.853478 1.154519 0.099330 1.007502 0.973591 -167.264475 -73.432190 -14.515641 -16.846940 54.344065 -0.168178 -60.574537 -18.854987 2.384017 -12.338601 -29.915235 29.556551 -168.437506 70.474992 13.274982 -9.849435 -57.276044 -10.908682 -73.842309 14.378718 -2.645307 -0.842489 5.101011 -36.908775 
-180.620677 0.000000 -119.983297 180.000000 -58.227884 180.000000 -0.287311 84.040459 -1.649352 96.935855 -4.899752 175.048574 158.048474 -7.347795 170.249910 -43.759840 -3.044552 -3.656126 77.537858 1.296923 -5.118578 21.454553 0.003088 -0.000001 179.495541 15.449205 172.156803 -66.591244 -3.118963 3.288910 65.806059 -1.053723 3.208555 21.454570 -0.003116 -0.000008 10.081137 -1.623300 1.063447 10.124826 -3.333401 1.981493 9.806363 -3.321242 2.001596 19.295928 -4.765775 1.255126 -0.258686 1.092311 1.067309 -168.939320 -73.306706 -12.797114 -18.189089 53.356396 -0.670354 -62.840035 -18.355237 2.437014 -13.576583 -27.317181 31.817774 -170.406881 70.775704 11.245304 -12.636327 -57.793755 -15.063910 -58.250121 19.536462 -2.375187 3.469054 4.626176 -27.331127 
-181.225708 0.000000 -116.117620 180.000000 -58.204058 180.000000 -0.313997 84.576286 -1.795038 97.579313 -4.667238 176.098621 160.718422 -5.843100 170.809944 -44.234798 -2.954661 -3.732502 79.997716 1.580148 -4.562470 21.454550 0.003090 0.000001 175.182932 13.642594 173.233787 -74.336200 -3.699623 4.591923 67.881664 -1.834452 3.748646 21.454553 -0.003109 -0.000019 10.289206 -1.570433 0.825021 10.548572 -3.209535 1.503868 10.230044 -3.200254 1.523236 19.543060 -5.742488 1.262740 -0.366969 1.351270 1.030783 -171.022090 -73.244674 -10.658989 -19.935929 52.200868 -1.070816 -64.612483 -17.864488 2.472818 -14.216830 -23.301486 35.598143 -172.334019 70.996292 9.260680 -14.889401 -58.219501 -17.073984 -42.754184 20.003508 -1.888915 7.138179 3.815821 -17.413467 
-181.928108 0.000000 -112.292793 180.000000 -58.252421 180.000000 -0.361482 85.412987 -1.735708 97.756320 -4.263355 177.813873 163.630473 -4.496701 172.105987 -43.101222 -2.916784 -3.797666 81.633690 1.801959 -4.040214 21.454551 0.003098 -0.000000 170.919105 11.517197 175.571870 -78.973912 -3.949779 4.958246 70.962933 -2.390190 3.090456 21.454558 -0.003107 -0.000019 10.387168 -1.446677 0.622093 10.750753 -2.944896 1.107296 10.432253 -2.938017 1.125085 19.752041 -5.591599 1.071539 -0.312469 1.203857 0.873629 -172.739282 -73.815985 -8.899703 -22.597035 51.678936 -0.929531 -65.583907 -18.018857 2.522340 -14.785539 -18.593737 40.174158 -171.840388 70.292892 9.766103 -13.415449 -58.315281 -19.086743 -31.826042 17.168142 -1.431782 9.638406 2.931534 -11.808693 
-182.722120 0.000000 -108.509275 180.000000 -58.370019 180.000000 -0.587061 86.382423 -1.484335 97.199798 -3.910688 179.566084 166.317661 -3.552396 173.361389 -40.782506 -3.061392 -3.703242 82.546634 1.886804 -3.475875 21.454553 0.003095 0.000001 166.063168 9.244594 178.068865 -80.660518 -3.722304 5.497182 70.917096 -2.592807 3.695730 21.454562 -0.003115 -0.000017 10.311646 -1.321286 0.436820 10.604530 -2.677061 0.750808 10.286092 -2.672337 0.766990 19.903231 -5.362262 0.909479 -0.478694 1.390795 0.671133 -174.270214 -74.435811 -7.334780 -24.183408 51.847932 -0.528139 -67.343678 -17.533275 2.559590 -15.509126 -14.499537 44.501175 -170.058200 69.837202 11.603305 -8.352591 -58.951124 -23.081192 -25.841080 14.873376 -1.173142 11.843556 0.759071 -10.247212 
-183.601987 0.000000 -104.767528 180.000000 -58.554148 180.000000 -0.872808 87.349678 -1.251219 96.203783 -3.784953 -178.751390 168.940658 -2.553800 174.421885 -37.631187 -3.091831 -3.525687 82.943816 1.882636 -2.963164 21.454551 0.003085 -0.000001 161.113767 7.718505 -179.643155 -79.420265 -3.115388 5.076740 70.082747 -2.160324 4.094178 21.454558 -0.003115 -0.000017 10.143201 -1.215885 0.177565 10.273234 -2.442730 0.246466 9.954811 -2.441059 0.261220 19.600495 -5.918734 0.827129 -0.675217 2.075738 0.422999 -174.331904 -74.486300 -7.272103 -24.346245 52.281987 0.633590 -70.283234 -16.396569 2.600934 -16.192714 -11.891094 49.118011 -167.244108 69.471821 14.508509 -0.589300 -59.047375 -30.691206 -24.481748 14.165500 -1.106463 12.729050 -2.092238 -12.541156 
-184.561952 0.000000 -101.068010 180.000000 -58.802375 180.000000 -1.148870 88.199478 -0.993520 95.058258 -3.524660 -177.027515 171.508741 -1.929201 175.476630 -34.236788 -3.075064 -3.207660 83.120069 1.756860 -2.534671 21.454553 0.003099 0.000000 156.669199 6.518206 -177.784237 -75.405200 -2.171311 3.801674 70.304128 -1.653542 3.008302 21.454558 -0.003105 -0.000015 9.930601 -1.082822 -0.188717 9.854490 -2.145649 -0.469051 9.536161 -2.148303 -0.456066 19.455020 -6.198723 1.095094 -1.655284 2.405390 0.605318 -173.333699 -74.537281 -8.294998 -23.109163 53.098639 2.623087 -74.047358 -14.788960 2.646188 -15.806943 -10.468134 50.501223 -164.996006 69.031294 16.832892 7.441839 -58.125743 -39.784397 -25.095573 14.223551 -1.119702 12.100314 -5.498817 -14.412153 
-185.596258 0.000000 -97.411182 180.000000 -59.112540 180.000000 -1.364421 88.756866 -0.700941 94.031079 -3.185941 -175.361952 174.015393 -1.734206 176.849293 -31.265109 -3.354783 -2.922611 83.489015 1.655207 -2.148092 21.454551 0.003100 -0.000000 153.161432 5.451501 -176.969368 -68.967214 -1.013846 2.355872 70.387258 -0.725562 2.792149 21.454562 -0.003123 -0.000014 9.757551 -0.921164 -0.573354 9.512984 -1.792111 -1.220626 9.194779 -1.799312 -1.209776 18.945796 -6.244089 1.410263 -2.830439 2.284248 0.910152 -172.620710 -74.802394 -9.026781 -21.173214 54.332365 4.921140 -77.699706 -12.715763 2.656741 -14.797369 -11.397124 48.907747 -162.686705 68.918603 19.219901 14.317568 -57.126599 -48.009400 -25.770836 14.620968 -1.155895 9.798944 -7.954028 -15.415897 
-186.699147 0.000000 -93.797504 180.000000 -59.482763 180.000000 -1.596375 88.959869 -0.494273 92.969874 -3.183391 -173.774156 176.058904 -1.266697 178.246941 -29.173323 -3.450442 -2.743107 83.996396 1.578415 -1.970768 21.454551 0.003095 -0.000001 150.683139 4.682908 -177.107816 -59.969512 0.100891 2.718445 70.556687 -1.099272 2.632170 21.454562 -0.003105 -0.000021 9.631754 -0.848031 -0.948692 9.265453 -1.617431 -1.962419 8.947421 -1.629114 -1.952596 18.075828 -5.972621 1.747884 -4.322740 1.993321 1.259682 -173.069890 -75.177304 -8.569263 -19.327006 55.617356 6.846918 -80.736620 -10.802668 2.653957 -13.561181 -11.836244 45.926291 -160.624507 68.944196 21.350196 19.970184 -56.222292 -52.779665 -26.942229 14.588777 -1.173494 9.067053 -9.944545 -14.736299 
